<svg id="Layer_1" data-name="Layer 1" xmlns="http://www.w3.org/2000/svg" viewBox="0 0 459 105.63"><defs><style>.cls-1{fill:#fff;stroke:#f2f2f2;stroke-miterlimit:10;stroke-width:0.25px;}</style></defs><title>vitor-logo</title><path d="M429.6,313.8a5.65,5.65,0,0,0-3.4,1.3,19,19,0,0,0-2.6,5.4l-16.1,44.2-16.3-43.2c-1.3-3.3-2.6-5.5-3.7-6.5a7.21,7.21,0,0,0-4-1.3v-1.4h17.4v1.4a17.66,17.66,0,0,0-4.4.7,2.39,2.39,0,0,0-1.5,2.5c0,0.8.9,3.7,2.7,8.6l10.8,29,11.6-31.6a18.88,18.88,0,0,0,1.3-5.6,3,3,0,0,0-1.5-3,15.33,15.33,0,0,0-3.7-.6v-1.4h13.4v1.5h0Z" transform="translate(-383.5 -311.3)"/><path d="M448.4,364.3H432.3v-1.2c2.4-.1,4.1-0.6,4.9-1.4,1-1,1.5-3.1,1.5-6.1V339.1q0-5.4-3.6-5.4a7.88,7.88,0,0,0-2.3.4v-1.3a96.2,96.2,0,0,0,9.8-3.9v26.7q0,4.05,1.2,5.7c0.7,1,2.3,1.6,4.7,1.8v1.2h-0.1Zm-5.6-49.8c0,2.2-1,3.3-2.9,3.3a2.35,2.35,0,0,1-2.1-1.2,4.2,4.2,0,0,1-.6-2.1,3.52,3.52,0,0,1,.7-2.1,2.31,2.31,0,0,1,2-1.1,2.88,2.88,0,0,1,2.1.9A3.78,3.78,0,0,1,442.8,314.5Z" transform="translate(-383.5 -311.3)"/><path d="M468.9,359.3a9.07,9.07,0,0,1-3.2,4,7.53,7.53,0,0,1-4.4,1.5,4.61,4.61,0,0,1-4.1-2c-0.9-1.5-1.4-4.1-1.4-7.7V330.9h-4.9a4.2,4.2,0,0,1,.1-1.5,10.92,10.92,0,0,0,3.2-2c1.7-1.7,3.3-4.5,4.6-8.4h0.8v9.8h7.9v2.1h-7.9v22.6c0,3,.2,4.9.6,5.8,0.6,1.3,1.8,1.9,3.7,1.9a4.7,4.7,0,0,0,4.2-2.4Z" transform="translate(-383.5 -311.3)"/><path d="M500.6,346.4a20.91,20.91,0,0,1-3.7,12.2c-2.9,4.2-6.6,6.3-11.3,6.3a13.21,13.21,0,0,1-10.7-5.3c-2.8-3.5-4.1-7.9-4.1-13.2a20.43,20.43,0,0,1,3.9-12.7,12.86,12.86,0,0,1,10.6-5.4,13.74,13.74,0,0,1,11,4.9C499.2,336.4,500.6,340.8,500.6,346.4Zm-4.1,2.2q0-7.8-3.3-12.9c-2.2-3.4-4.9-5.1-8.4-5.1a9,9,0,0,0-6.6,2.7c-2.1,2.2-3.2,5.2-3.2,9.2a29.28,29.28,0,0,0,2.6,13.3c2.1,4.5,5.1,6.8,9.1,6.8a8.45,8.45,0,0,0,6.2-2.5C495.3,357.6,496.5,353.8,496.5,348.6Z" transform="translate(-383.5 -311.3)"/><path d="M525.3,332.3c0,1.6-.7,2.5-2.1,2.5a5.92,5.92,0,0,1-2.7-.8,4,4,0,0,0-2.4-.8q-1.35.15-3.6,3.3c-1.5,2.1-2.2,3.8-2.2,5.1l0.1,15c0,2.6.6,4.4,1.9,5.4a8.22,8.22,0,0,0,4.6,1.2v1.2H503v-1.2a9.75,9.75,0,0,0,4.2-1.5c0.9-.9,1.4-2.4,1.4-4.6v-18c0-3.6-1.1-5.4-3.4-5.4a10.31,10.31,0,0,0-2,.2v-1.2c2.1-.7,5.2-2.1,9.3-4v9l0.8-1.2a68.28,68.28,0,0,1,4.6-6,5.92,5.92,0,0,1,4.1-2C524.2,328.4,525.3,329.7,525.3,332.3Z" transform="translate(-383.5 -311.3)"/><path d="M580.5,326.5a14.19,14.19,0,0,1-3.9,10.3c-2.9,3-7.7,4.5-14.5,4.5-2.7,0-4.7,0-6-.1v13.9q0,4.35,1.8,6c1,1,2.9,1.6,5.6,1.8v1.4H545v-1.4c2.8-.3,4.6-1.1,5.5-2.4,0.8-1.1,1.2-3.3,1.2-6.4V321.3c0-2.8-.4-4.7-1.3-5.6s-2.6-1.4-5.3-1.8v-1.4H563c5.1,0,9.2,1.1,12.4,3.2A13.1,13.1,0,0,1,580.5,326.5Zm-4.9.1q0-11.7-16.2-11.7a4.87,4.87,0,0,0-2.6.4,3.94,3.94,0,0,0-.7,2.8v20.5a43.87,43.87,0,0,0,5.6.3C570.9,338.9,575.6,334.8,575.6,326.6Z" transform="translate(-383.5 -311.3)"/><path d="M593.7,361a3.74,3.74,0,0,1-3.8,4,3.58,3.58,0,0,1-2.4-.9,4.22,4.22,0,0,1-1.3-3.1,5.75,5.75,0,0,1,1.1-3.4,3.17,3.17,0,0,1,2.6-1.3,3.49,3.49,0,0,1,2.7,1.3A5.15,5.15,0,0,1,593.7,361Z" transform="translate(-383.5 -311.3)"/><path d="M657.2,325.2h-1.5c-0.8-4.4-1.9-7.2-3.4-8.4s-4.1-1.8-8.1-1.8h-4.1v40.1c0,2.8.5,4.7,1.5,5.9s3.1,1.7,6,1.9v1.4H628.3v-1.4c3-.2,5-1,6-2.3,0.8-1.1,1.3-3.3,1.3-6.5V315h-4.2c-3.9,0-6.6.6-8.1,1.9s-2.6,3.9-3.4,8.3h-1.6l0.4-12.6h38.1Z" transform="translate(-383.5 -311.3)"/><path d="M687.2,352.4a20.46,20.46,0,0,1-4,7.4,12.78,12.78,0,0,1-10.2,5.1,11.34,11.34,0,0,1-9.4-4.7c-2.3-3-3.4-7.3-3.4-12.7,0-6.4,1.6-11.4,4.9-15a12,12,0,0,1,9-4.2,10.55,10.55,0,0,1,7.8,3c2.3,2.3,3.7,5.7,4.1,10.3H663.4c0.1,6.8,1.3,11.8,3.7,15.2a8.69,8.69,0,0,0,7.5,4.2q7.2,0,11.7-9ZM681,339.6c-0.7-6-3.4-9-8.3-9-4.3,0-7.3,3-9.1,9H681Z" transform="translate(-383.5 -311.3)"/><path d="M705.7,364.3H689.6v-1.2c2.4-.1,4.1-0.6,4.9-1.4,1-1,1.5-3.1,1.5-6.1V339.1q0-5.4-3.6-5.4a7.88,7.88,0,0,0-2.3.4v-1.3a96.2,96.2,0,0,0,9.8-3.9v26.7q0,4.05,1.2,5.7c0.7,1,2.3,1.6,4.7,1.8v1.2h-0.1ZM700,314.5c0,2.2-1,3.3-2.9,3.3a2.35,2.35,0,0,1-2.1-1.2,4.2,4.2,0,0,1-.6-2.1,3.52,3.52,0,0,1,.7-2.1,2.31,2.31,0,0,1,2-1.1,2.88,2.88,0,0,1,2.1.9A3.24,3.24,0,0,1,700,314.5Z" transform="translate(-383.5 -311.3)"/><path d="M739.7,364.3H726.6v-1.2c1.9-.2,2.8-0.9,2.8-2a7.9,7.9,0,0,0-1.1-3l-5.7-10.5-6.1,10.6a9.37,9.37,0,0,0-1.3,3.2c0,0.9.8,1.5,2.3,1.7v1.2h-9.2v-1.2a4.81,4.81,0,0,0,2.3-.7,10.62,10.62,0,0,0,2.2-2.9l8.7-14.6-6.1-11.2q-1.95-3.6-4.8-3.6h-0.8a5.38,5.38,0,0,0-.8.1v-1.1h13.5v1.1c-2.4.2-3.5,1-3.4,2.3,0.1,0.9,1.5,3.8,4.2,8.6,2.5-4.1,4-7.2,4.5-9.1a2.49,2.49,0,0,0,.1-0.8q0-.75-1.5-0.9v-1.1h10.2v1.1a20,20,0,0,0-3.4.4,4.2,4.2,0,0,0-2.3,2.1l-6.3,10.8,8.9,16c1,1.8,2.1,3,3.4,3.4l2.8,0.3v1h0Z" transform="translate(-383.5 -311.3)"/><path d="M769.8,352.4a20.46,20.46,0,0,1-4,7.4,12.78,12.78,0,0,1-10.2,5.1,11.34,11.34,0,0,1-9.4-4.7c-2.3-3-3.4-7.3-3.4-12.7,0-6.4,1.6-11.4,4.9-15a12,12,0,0,1,9-4.2,10.55,10.55,0,0,1,7.8,3c2.3,2.3,3.7,5.7,4.1,10.3H746c0.1,6.8,1.3,11.8,3.7,15.2a8.69,8.69,0,0,0,7.5,4.2q7.2,0,11.7-9Zm-6.2-12.8c-0.7-6-3.4-9-8.3-9-4.3,0-7.3,3-9.1,9h17.4Z" transform="translate(-383.5 -311.3)"/><path d="M788.3,364.3H772.2v-1.2c2.4-.1,4.1-0.6,4.9-1.4,1-1,1.5-3.1,1.5-6.1V339.1q0-5.4-3.6-5.4a7.88,7.88,0,0,0-2.3.4v-1.3a96.2,96.2,0,0,0,9.8-3.9v26.7q0,4.05,1.2,5.7c0.7,1,2.3,1.6,4.7,1.8v1.2h-0.1Zm-5.6-49.8c0,2.2-1,3.3-2.9,3.3a2.35,2.35,0,0,1-2.1-1.2,4.2,4.2,0,0,1-.6-2.1,3.52,3.52,0,0,1,.7-2.1,2.31,2.31,0,0,1,2-1.1,2.88,2.88,0,0,1,2.1.9A3.78,3.78,0,0,1,782.7,314.5Z" transform="translate(-383.5 -311.3)"/><path d="M812.6,332.3c0,1.6-.7,2.5-2.1,2.5a5.92,5.92,0,0,1-2.7-.8,4,4,0,0,0-2.4-.8q-1.35.15-3.6,3.3c-1.5,2.1-2.2,3.8-2.2,5.1l0.1,15c0,2.6.6,4.4,1.9,5.4a8.22,8.22,0,0,0,4.6,1.2v1.2H790.3v-1.2a9.75,9.75,0,0,0,4.2-1.5c0.9-.9,1.4-2.4,1.4-4.6v-18c0-3.6-1.2-5.4-3.4-5.4a10.31,10.31,0,0,0-2,.2v-1.2c2.1-.7,5.2-2.1,9.3-4v9l0.8-1.2a68.28,68.28,0,0,1,4.6-6,5.92,5.92,0,0,1,4.1-2C811.5,328.4,812.6,329.7,812.6,332.3Z" transform="translate(-383.5 -311.3)"/><path d="M842.5,361.2c-1.8,2.5-3.8,3.7-5.8,3.7s-3.2-2.3-3.4-6.8c-5,4.5-8.8,6.8-11.3,6.8a6.19,6.19,0,0,1-4.7-2,8.11,8.11,0,0,1-2.1-5.8c0-3.6,1.6-6.6,4.7-9.1,2.2-1.7,6.6-4,13.1-6.9l0.2-4.4c0.2-4.5-1.9-6.8-6.5-6.8a7.94,7.94,0,0,0-3.9,1.1c-1.4.8-2,1.7-2,2.7q0-.3.3,2.7a3.44,3.44,0,0,1-.5,2.3,2,2,0,0,1-1.8.9c-1.6,0-2.4-1.1-2.4-3.2a7,7,0,0,1,2.5-5.2,11.32,11.32,0,0,1,8.4-3.1c4.3,0,7.1,1.5,8.4,4.4,0.6,1.5.9,4.1,0.9,7.9v14.7c0,3.7,1,5.6,3,5.6a4.87,4.87,0,0,0,2.8-1.3v1.8h0.1Zm-9.3-7.6V343.1c-9,3.5-13.5,7.2-13.5,11.2v0.2c0,3.9,1.8,6.1,5.3,6.5,1.5,0.1,3.3-.5,5.4-2A6.15,6.15,0,0,0,833.2,353.6Z" transform="translate(-383.5 -311.3)"/><path class="cls-1" d="M416.7,389.8v12.3h9a1.56,1.56,0,0,1,1.3.4,1.16,1.16,0,0,1,.4,1,1,1,0,0,1-.4.9,2.23,2.23,0,0,1-1.3.4H410.6a1.56,1.56,0,0,1-1.3-.4,1.09,1.09,0,0,1-.4-0.9,1.28,1.28,0,0,1,.4-1,2.23,2.23,0,0,1,1.3-.4h3.5V370.9h-3.5a1.56,1.56,0,0,1-1.3-.4,1.09,1.09,0,0,1-.4-0.9,1,1,0,0,1,.4-0.9,2.23,2.23,0,0,1,1.3-.4h15.2a12.52,12.52,0,0,1,8.8,3.2,9.72,9.72,0,0,1,3.4,7.4,9.65,9.65,0,0,1-3.8,7.7,18.9,18.9,0,0,1-4.8,2.6,14.41,14.41,0,0,1-4.5.6h-8.2Zm0-2.6H425a11.33,11.33,0,0,0,5.4-1.3,9.08,9.08,0,0,0,3.7-3.2,7.07,7.07,0,0,0,1.2-3.8,7.37,7.37,0,0,0-2.6-5.5,9.73,9.73,0,0,0-6.7-2.5h-9.3v16.3Z" transform="translate(-383.5 -311.3)"/><path class="cls-1" d="M452.1,365.7v16.1a16.88,16.88,0,0,1,4.8-3.8,11.93,11.93,0,0,1,5.1-1.1,11.75,11.75,0,0,1,5.2,1.1,9.39,9.39,0,0,1,3.6,3.3,8.08,8.08,0,0,1,1.4,4.7v16.2h2.9a2,2,0,0,1,1.4.4,1.16,1.16,0,0,1,.4,1,1,1,0,0,1-.4.9,2.33,2.33,0,0,1-1.4.4h-8.5a2,2,0,0,1-1.4-.4,1.09,1.09,0,0,1-.4-0.9,1.28,1.28,0,0,1,.4-1,2.33,2.33,0,0,1,1.4-.4h2.9v-16a6.19,6.19,0,0,0-2-4.7,8,8,0,0,0-5.7-1.9,8.81,8.81,0,0,0-4.9,1.4,31.9,31.9,0,0,0-4.8,4.7v16.6h3a1.56,1.56,0,0,1,1.3.4,1.16,1.16,0,0,1,.4,1,1,1,0,0,1-.4.9,2.23,2.23,0,0,1-1.3.4h-8.5a1.56,1.56,0,0,1-1.3-.4,1.09,1.09,0,0,1-.4-0.9,1.28,1.28,0,0,1,.4-1,2.23,2.23,0,0,1,1.3-.4h3V368.5h-3.5a1.56,1.56,0,0,1-1.3-.4,1.16,1.16,0,0,1-.4-1,1,1,0,0,1,.4-0.9,2.23,2.23,0,0,1,1.3-.4h6v-0.1Z" transform="translate(-383.5 -311.3)"/><path class="cls-1" d="M513.6,391.3a13.6,13.6,0,0,1-4.3,10.2,14.27,14.27,0,0,1-10.3,4.2,14,14,0,0,1-10.4-4.3,13.76,13.76,0,0,1-4.3-10.2,13.6,13.6,0,0,1,4.3-10.2A14.65,14.65,0,0,1,513.6,391.3Zm-2.7,0a11.48,11.48,0,0,0-3.5-8.4,11.7,11.7,0,0,0-8.5-3.5,11.87,11.87,0,0,0-8.5,3.5,11.71,11.71,0,0,0,0,16.7,11.7,11.7,0,0,0,8.5,3.5,11.87,11.87,0,0,0,8.5-3.5A11.1,11.1,0,0,0,510.9,391.3Z" transform="translate(-383.5 -311.3)"/><path class="cls-1" d="M531.8,377.8H546a1.56,1.56,0,0,1,1.3.4,1.16,1.16,0,0,1,.4,1,1,1,0,0,1-.4.9,2.23,2.23,0,0,1-1.3.4H531.8v17.4a4.78,4.78,0,0,0,1.8,3.8,8.17,8.17,0,0,0,5.3,1.5,23.69,23.69,0,0,0,5.7-.8,16.11,16.11,0,0,0,4.8-1.8,1.85,1.85,0,0,1,1-.4,1.22,1.22,0,0,1,.9.4,1.8,1.8,0,0,1,.4.9,1.22,1.22,0,0,1-.4.9c-0.7.7-2.3,1.4-4.8,2.2a24.84,24.84,0,0,1-7.4,1.2,11.52,11.52,0,0,1-7.3-2.1,7,7,0,0,1-2.7-5.8V380.5h-4.8a1.56,1.56,0,0,1-1.3-.4,1.16,1.16,0,0,1-.4-1,1,1,0,0,1,.4-0.9,2.23,2.23,0,0,1,1.3-.4h4.8v-7.7a1.56,1.56,0,0,1,.4-1.3,1.09,1.09,0,0,1,.9-0.4,1.28,1.28,0,0,1,1,.4,2.23,2.23,0,0,1,.4,1.3v7.7h0Z" transform="translate(-383.5 -311.3)"/><path class="cls-1" d="M590.1,391.3a13.6,13.6,0,0,1-4.3,10.2,14.27,14.27,0,0,1-10.3,4.2,14,14,0,0,1-10.4-4.3,13.76,13.76,0,0,1-4.3-10.2,13.6,13.6,0,0,1,4.3-10.2A14.65,14.65,0,0,1,590.1,391.3Zm-2.7,0a11.48,11.48,0,0,0-3.5-8.4,11.7,11.7,0,0,0-8.5-3.5,11.87,11.87,0,0,0-8.5,3.5,11.71,11.71,0,0,0,0,16.7,11.7,11.7,0,0,0,8.5,3.5,11.87,11.87,0,0,0,8.5-3.5A10.74,10.74,0,0,0,587.4,391.3Z" transform="translate(-383.5 -311.3)"/><path class="cls-1" d="M622.5,382.6v-4.8h6.1a1.56,1.56,0,0,1,1.3.4,1.16,1.16,0,0,1,.4,1,1,1,0,0,1-.4.9,2.23,2.23,0,0,1-1.3.4h-3.5v26.1a10.49,10.49,0,0,1-1.1,4.7,9,9,0,0,1-2.5,2.8,12.42,12.42,0,0,1-3.2,2.1,10.08,10.08,0,0,1-3.8.6h-7.4a1.56,1.56,0,0,1-1.3-.4,1.16,1.16,0,0,1-.4-1,1.28,1.28,0,0,1,.4-1,2.23,2.23,0,0,1,1.3-.4h7.5a7.87,7.87,0,0,0,4.2-1.2,8.91,8.91,0,0,0,3.1-3.5,6.71,6.71,0,0,0,.7-3.3v-7.8c-2.8,3.8-6.4,5.8-10.8,5.8a12.42,12.42,0,0,1-9.3-4,13.37,13.37,0,0,1-3.9-9.6,13,13,0,0,1,3.9-9.6,12.42,12.42,0,0,1,9.3-4C616.1,376.8,619.7,378.7,622.5,382.6Zm0,7.8a10.64,10.64,0,0,0-3.2-7.8,10.51,10.51,0,0,0-15.1,0,11.36,11.36,0,0,0,0,15.6,10.29,10.29,0,0,0,7.5,3.2,10.68,10.68,0,0,0,7.6-3.2A10.26,10.26,0,0,0,622.5,390.4Z" transform="translate(-383.5 -311.3)"/><path class="cls-1" d="M648.9,377.8v6.6a46.53,46.53,0,0,1,7.6-5.9,10.15,10.15,0,0,1,4.7-1.3,6.39,6.39,0,0,1,4.3,1.6c1.3,1,2,1.8,2,2.4a1.37,1.37,0,0,1-1.4,1.4,0.75,0.75,0,0,1-.5-0.1c-0.1-.1-0.4-0.3-0.8-0.7a10.15,10.15,0,0,0-1.9-1.5,3.17,3.17,0,0,0-1.6-.4,9,9,0,0,0-4.1,1.4,58.91,58.91,0,0,0-8.4,6.7v14.3h11.6a2,2,0,0,1,1.4.4,1.16,1.16,0,0,1,.4,1,1,1,0,0,1-.4.9,2.33,2.33,0,0,1-1.4.4H639.9a1.56,1.56,0,0,1-1.3-.4,1,1,0,0,1-.4-0.9,1.09,1.09,0,0,1,.4-0.9,2.33,2.33,0,0,1,1.4-.4h6.3V380.6h-4.8a1.56,1.56,0,0,1-1.3-.4,1.16,1.16,0,0,1-.4-1,1,1,0,0,1,.4-0.9,2.33,2.33,0,0,1,1.4-.4h7.3v-0.1Z" transform="translate(-383.5 -311.3)"/><path class="cls-1" d="M697.8,404.7V401a18.69,18.69,0,0,1-12.2,4.8c-3.1,0-5.6-.8-7.3-2.4a7.67,7.67,0,0,1-2.6-5.8,8.45,8.45,0,0,1,3.5-6.6c2.3-1.9,5.7-2.8,10.2-2.8,1.2,0,2.5.1,3.9,0.2s2.9,0.4,4.6.7v-4.2a4.66,4.66,0,0,0-2-3.7c-1.3-1.1-3.3-1.6-6-1.6a30.48,30.48,0,0,0-8.6,1.8,6.57,6.57,0,0,1-1.3.3,1.22,1.22,0,0,1-.9-0.4,1.49,1.49,0,0,1-.4-0.9,1,1,0,0,1,.3-0.8,13.29,13.29,0,0,1,3.5-1.3,29.46,29.46,0,0,1,7.3-1.3c3.3,0,5.9.8,7.7,2.4a7.43,7.43,0,0,1,2.8,5.5v17.3h3.5a2,2,0,0,1,1.4.4,1.16,1.16,0,0,1,.4,1,1,1,0,0,1-.4.9,2.33,2.33,0,0,1-1.4.4h-6v-0.2Zm0-13a22.4,22.4,0,0,0-3.9-.8,30.25,30.25,0,0,0-4.3-.2c-3.8,0-6.8.8-8.9,2.5a5.39,5.39,0,0,0-2.4,4.4,5,5,0,0,0,1.9,4c1.2,1.1,3,1.6,5.4,1.6a14.56,14.56,0,0,0,6.3-1.4,23.35,23.35,0,0,0,6-4.3v-5.8h-0.1Z" transform="translate(-383.5 -311.3)"/><path class="cls-1" d="M718.7,377.8v4.8a18,18,0,0,1,5-4.3,12.73,12.73,0,0,1,6.3-1.4,14.14,14.14,0,0,1,7.1,1.8,12.91,12.91,0,0,1,5.1,5,13.57,13.57,0,0,1,1.8,6.8,12.76,12.76,0,0,1-4,9.6,13.42,13.42,0,0,1-9.9,4,13.67,13.67,0,0,1-11.4-5.7v15.8h6.4a1.56,1.56,0,0,1,1.3.4,1.09,1.09,0,0,1,.4.9,1,1,0,0,1-.4.9,2.23,2.23,0,0,1-1.3.4H712.6a1.56,1.56,0,0,1-1.3-.4,1.16,1.16,0,0,1-.4-1,1,1,0,0,1,.4-0.9,2.23,2.23,0,0,1,1.3-.4h3.5V380.4h-3.5a1.56,1.56,0,0,1-1.3-.4,1.78,1.78,0,0,1-.4-1,1,1,0,0,1,.4-0.9,2.23,2.23,0,0,1,1.3-.4h6.1v0.1Zm22.6,12.6a10.29,10.29,0,0,0-3.3-7.7,11.73,11.73,0,0,0-16.1,0,10.45,10.45,0,0,0-3.3,7.7,10.66,10.66,0,0,0,3.3,7.8,10.93,10.93,0,0,0,8.1,3.2,11.26,11.26,0,0,0,8-3.2A10.35,10.35,0,0,0,741.3,390.4Z" transform="translate(-383.5 -311.3)"/><path class="cls-1" d="M758.2,365.7v16.1A16.88,16.88,0,0,1,763,378a11.93,11.93,0,0,1,5.1-1.1,11.75,11.75,0,0,1,5.2,1.1,9.39,9.39,0,0,1,3.6,3.3,8.08,8.08,0,0,1,1.4,4.7v16.2h2.9a2,2,0,0,1,1.4.4,1.16,1.16,0,0,1,.4,1,1,1,0,0,1-.4.9,2.33,2.33,0,0,1-1.4.4h-8.5a2,2,0,0,1-1.4-.4,1.22,1.22,0,0,1-.4-0.9,1.28,1.28,0,0,1,.4-1,2.33,2.33,0,0,1,1.4-.4h2.9v-16a6.19,6.19,0,0,0-2-4.7,8,8,0,0,0-5.7-1.9A8.81,8.81,0,0,0,763,381a31.9,31.9,0,0,0-4.8,4.7v16.6h3a1.56,1.56,0,0,1,1.3.4,1.16,1.16,0,0,1,.4,1,1,1,0,0,1-.4.9,2.23,2.23,0,0,1-1.3.4h-8.5a1.56,1.56,0,0,1-1.3-.4,1.09,1.09,0,0,1-.4-0.9,1.28,1.28,0,0,1,.4-1,2.23,2.23,0,0,1,1.3-.4h3V368.5H752a1.56,1.56,0,0,1-1.3-.4,1.16,1.16,0,0,1-.4-1,1,1,0,0,1,.4-0.9,2.23,2.23,0,0,1,1.3-.4h6.2v-0.1Z" transform="translate(-383.5 -311.3)"/><path class="cls-1" d="M805.2,404.7l-12.1-24.3h-0.8a1.56,1.56,0,0,1-1.3-.4,1.09,1.09,0,0,1-.4-0.9,1.45,1.45,0,0,1,.2-0.7,1.21,1.21,0,0,1,.5-0.5,2.79,2.79,0,0,1,1-.1h7.2a1.56,1.56,0,0,1,1.3.4,1.78,1.78,0,0,1,.4,1,1,1,0,0,1-.4.9,2.23,2.23,0,0,1-1.3.4H796L806.7,402l10.5-21.5h-3.5a1.56,1.56,0,0,1-1.3-.4,1.16,1.16,0,0,1-.4-1,1,1,0,0,1,.4-0.9,2.23,2.23,0,0,1,1.3-.4h7.1a2,2,0,0,1,1.4.4,1.28,1.28,0,0,1,.4,1,1.45,1.45,0,0,1-.2.7,2.65,2.65,0,0,1-.6.5,6.25,6.25,0,0,1-1.7.1l-16.6,33.7h4.1a1.56,1.56,0,0,1,1.3.4,1.09,1.09,0,0,1,.4.9,1,1,0,0,1-.4.9,2.23,2.23,0,0,1-1.3.4H792.5a1.56,1.56,0,0,1-1.3-.4,1.16,1.16,0,0,1-.4-1,1,1,0,0,1,.4-0.9,2.23,2.23,0,0,1,1.3-.4h8.2Z" transform="translate(-383.5 -311.3)"/></svg>