<?xml version="1.0" encoding="utf-8"?>
<!-- Generator: Adobe Illustrator 20.1.0, SVG Export Plug-In . SVG Version: 6.00 Build 0)  -->
<svg version="1.1" id="Layer_1" xmlns="http://www.w3.org/2000/svg" xmlns:xlink="http://www.w3.org/1999/xlink" x="0px" y="0px"
	 viewBox="0 0 1280 800" style="enable-background:new 0 0 1280 800;" xml:space="preserve">
<style type="text/css">
	.st0{fill:#FFFFFF;stroke:#F2F2F2;stroke-width:0.25;stroke-miterlimit:10;}
</style>
<g>
	<path d="M429.6,313.8c-1.6,0.2-2.7,0.6-3.4,1.3c-0.7,0.8-1.6,2.6-2.6,5.4l-16.1,44.2l-16.3-43.2c-1.3-3.3-2.6-5.5-3.7-6.5
		c-0.8-0.7-2.1-1.1-4-1.3v-1.4h17.4v1.4c-2.3,0.2-3.7,0.4-4.4,0.7c-1,0.4-1.5,1.2-1.5,2.5c0,0.8,0.9,3.7,2.7,8.6l10.8,29l11.6-31.6
		c0.8-2.3,1.3-4.2,1.3-5.6c0-1.5-0.5-2.5-1.5-3c-0.4-0.2-1.6-0.4-3.7-0.6v-1.4h13.4V313.8z"/>
	<path d="M448.4,364.3h-16.1v-1.2c2.4-0.1,4.1-0.6,4.9-1.4c1-1,1.5-3.1,1.5-6.1v-16.5c0-3.6-1.2-5.4-3.6-5.4c-0.6,0-1.3,0.1-2.3,0.4
		v-1.3c2.3-0.7,5.5-2,9.8-3.9v26.7c0,2.7,0.4,4.6,1.2,5.7c0.7,1,2.3,1.6,4.7,1.8V364.3z M442.8,314.5c0,2.2-1,3.3-2.9,3.3
		c-0.9,0-1.6-0.4-2.1-1.2c-0.4-0.7-0.6-1.4-0.6-2.1c0-0.7,0.2-1.4,0.7-2.1c0.5-0.7,1.1-1.1,2-1.1c0.8,0,1.5,0.3,2.1,0.9
		C442.5,312.9,442.8,313.6,442.8,314.5z"/>
	<path d="M468.9,359.3c-0.7,1.7-1.8,3-3.2,4c-1.4,1-2.9,1.5-4.4,1.5c-1.9,0-3.2-0.7-4.1-2c-0.9-1.5-1.4-4.1-1.4-7.7v-24.2h-4.9
		c0-0.9,0-1.4,0.1-1.5c0.6-0.1,1.6-0.8,3.2-2c1.7-1.7,3.3-4.5,4.6-8.4h0.8v9.8h7.9v2.1h-7.9v22.6c0,3,0.2,4.9,0.6,5.8
		c0.6,1.3,1.8,1.9,3.7,1.9c1.8,0,3.2-0.8,4.2-2.4L468.9,359.3z"/>
	<path d="M500.6,346.4c0,4.5-1.2,8.6-3.7,12.2c-2.9,4.2-6.6,6.3-11.3,6.3c-4.3,0-7.9-1.8-10.7-5.3c-2.8-3.5-4.1-7.9-4.1-13.2
		c0-5,1.3-9.3,3.9-12.7c2.8-3.6,6.3-5.4,10.6-5.4c4.5,0,8.2,1.6,11,4.9C499.2,336.4,500.6,340.8,500.6,346.4z M496.5,348.6
		c0-5.2-1.1-9.5-3.3-12.9c-2.2-3.4-4.9-5.1-8.4-5.1c-2.6,0-4.8,0.9-6.6,2.7c-2.1,2.2-3.2,5.2-3.2,9.2c-0.1,5.1,0.8,9.5,2.6,13.3
		c2.1,4.5,5.1,6.8,9.1,6.8c2.4,0,4.5-0.8,6.2-2.5C495.3,357.6,496.5,353.8,496.5,348.6z"/>
	<path d="M525.3,332.3c0,1.6-0.7,2.5-2.1,2.5c-0.8,0-1.8-0.3-2.7-0.8c-1-0.6-1.8-0.9-2.4-0.8c-0.9,0.1-2.1,1.2-3.6,3.3
		c-1.5,2.1-2.2,3.8-2.2,5.1l0.1,15c0,2.6,0.6,4.4,1.9,5.4c0.9,0.7,2.4,1.1,4.6,1.2v1.2H503v-1.2c2.1-0.4,3.5-0.9,4.2-1.5
		c0.9-0.9,1.4-2.4,1.4-4.6v-18c0-3.6-1.1-5.4-3.4-5.4c-0.8,0-1.5,0.1-2,0.2v-1.2c2.1-0.7,5.2-2.1,9.3-4v9l0.8-1.2c2.1-3,3.7-5,4.6-6
		c1.3-1.3,2.7-2,4.1-2C524.2,328.4,525.3,329.7,525.3,332.3z"/>
	<path d="M580.5,326.5c0,4.2-1.3,7.6-3.9,10.3c-2.9,3-7.7,4.5-14.5,4.5c-2.7,0-4.7,0-6-0.1v13.9c0,2.9,0.6,4.9,1.8,6
		c1,1,2.9,1.6,5.6,1.8v1.4h-18.5v-1.4c2.8-0.3,4.6-1.1,5.5-2.4c0.8-1.1,1.2-3.3,1.2-6.4v-32.8c0-2.8-0.4-4.7-1.3-5.6
		c-0.8-0.8-2.6-1.4-5.3-1.8v-1.4h17.9c5.1,0,9.2,1.1,12.4,3.2C578.7,318.3,580.5,321.9,580.5,326.5z M575.6,326.6
		c0-7.8-5.4-11.7-16.2-11.7c-1.4,0-2.2,0.1-2.6,0.4c-0.5,0.5-0.7,1.4-0.7,2.8v20.5c1.5,0.2,3.4,0.3,5.6,0.3
		C570.9,338.9,575.6,334.8,575.6,326.6z"/>
	<path d="M593.7,361c0,1.2-0.4,2.3-1.3,3.1c-0.8,0.6-1.6,0.9-2.5,0.9c-0.9,0-1.7-0.3-2.4-0.9c-0.8-0.8-1.3-1.8-1.3-3.1
		c0-1.3,0.4-2.4,1.1-3.4c0.7-0.9,1.6-1.3,2.6-1.3c1,0,1.9,0.4,2.7,1.3C593.4,358.6,593.7,359.7,593.7,361z"/>
	<path d="M657.2,325.2h-1.5c-0.8-4.4-1.9-7.2-3.4-8.4c-1.4-1.2-4.1-1.8-8.1-1.8h-4.1v40.1c0,2.8,0.5,4.7,1.5,5.9
		c1.1,1.1,3.1,1.7,6,1.9v1.4h-19.3v-1.4c3-0.2,5-1,6-2.3c0.8-1.1,1.3-3.3,1.3-6.5V315h-4.2c-3.9,0-6.6,0.6-8.1,1.9
		c-1.5,1.2-2.6,3.9-3.4,8.3h-1.6l0.4-12.6h38.1L657.2,325.2z"/>
	<path d="M687.2,352.4c-0.8,2.8-2.2,5.2-4,7.4c-2.8,3.4-6.2,5.1-10.2,5.1c-3.9,0-7-1.6-9.4-4.7c-2.3-3-3.4-7.3-3.4-12.7
		c0-6.4,1.6-11.4,4.9-15c2.6-2.8,5.6-4.2,9-4.2c3.2,0,5.8,1,7.8,3c2.3,2.3,3.7,5.7,4.1,10.3h-22.6c0.1,6.8,1.3,11.8,3.7,15.2
		c1.9,2.8,4.4,4.2,7.5,4.2c4.8,0,8.7-3,11.7-9L687.2,352.4z M681,339.6c-0.7-6-3.4-9-8.3-9c-4.3,0-7.3,3-9.1,9H681z"/>
	<path d="M705.7,364.3h-16.1v-1.2c2.4-0.1,4.1-0.6,4.9-1.4c1-1,1.5-3.1,1.5-6.1v-16.5c0-3.6-1.2-5.4-3.6-5.4c-0.6,0-1.3,0.1-2.3,0.4
		v-1.3c2.3-0.7,5.5-2,9.8-3.9v26.7c0,2.7,0.4,4.6,1.2,5.7c0.7,1,2.3,1.6,4.7,1.8V364.3z M700,314.5c0,2.2-1,3.3-2.9,3.3
		c-0.9,0-1.6-0.4-2.1-1.2c-0.4-0.7-0.6-1.4-0.6-2.1c0-0.7,0.2-1.4,0.7-2.1c0.5-0.7,1.1-1.1,2-1.1c0.8,0,1.5,0.3,2.1,0.9
		C699.8,312.9,700,313.6,700,314.5z"/>
	<path d="M739.7,364.3h-13.1v-1.2c1.9-0.2,2.8-0.9,2.8-2c0-0.7-0.4-1.6-1.1-3l-5.7-10.5l-6.1,10.6c-0.8,1.5-1.3,2.6-1.3,3.2
		c0,0.9,0.8,1.5,2.3,1.7v1.2h-9.2v-1.2c1-0.1,1.7-0.3,2.3-0.7c0.5-0.3,1.2-1.3,2.2-2.9l8.7-14.6l-6.1-11.2c-1.3-2.4-2.9-3.6-4.8-3.6
		c-0.2,0-0.5,0-0.8,0c-0.4,0-0.7,0.1-0.8,0.1v-1.1h13.5v1.1c-2.4,0.2-3.5,1-3.4,2.3c0.1,0.9,1.5,3.8,4.2,8.6c2.5-4.1,4-7.2,4.5-9.1
		c0.1-0.3,0.1-0.6,0.1-0.8c0-0.5-0.5-0.8-1.5-0.9v-1.1h10.2v1.1c-1.9,0.1-3,0.3-3.4,0.4c-0.9,0.3-1.7,1-2.3,2.1l-6.3,10.8l8.9,16
		c1,1.8,2.1,3,3.4,3.4c0.9,0.1,1.9,0.2,2.8,0.3V364.3z"/>
	<path d="M769.8,352.4c-0.8,2.8-2.2,5.2-4,7.4c-2.8,3.4-6.2,5.1-10.2,5.1c-3.9,0-7-1.6-9.4-4.7c-2.3-3-3.4-7.3-3.4-12.7
		c0-6.4,1.6-11.4,4.9-15c2.6-2.8,5.6-4.2,9-4.2c3.2,0,5.8,1,7.8,3c2.3,2.3,3.7,5.7,4.1,10.3H746c0.1,6.8,1.3,11.8,3.7,15.2
		c1.9,2.8,4.4,4.2,7.5,4.2c4.8,0,8.7-3,11.7-9L769.8,352.4z M763.6,339.6c-0.7-6-3.4-9-8.3-9c-4.3,0-7.3,3-9.1,9H763.6z"/>
	<path d="M788.3,364.3h-16.1v-1.2c2.4-0.1,4.1-0.6,4.9-1.4c1-1,1.5-3.1,1.5-6.1v-16.5c0-3.6-1.2-5.4-3.6-5.4c-0.6,0-1.3,0.1-2.3,0.4
		v-1.3c2.3-0.7,5.5-2,9.8-3.9v26.7c0,2.7,0.4,4.6,1.2,5.7c0.7,1,2.3,1.6,4.7,1.8V364.3z M782.7,314.5c0,2.2-1,3.3-2.9,3.3
		c-0.9,0-1.6-0.4-2.1-1.2c-0.4-0.7-0.6-1.4-0.6-2.1c0-0.7,0.2-1.4,0.7-2.1c0.5-0.7,1.1-1.1,2-1.1c0.8,0,1.5,0.3,2.1,0.9
		C782.4,312.9,782.7,313.6,782.7,314.5z"/>
	<path d="M812.6,332.3c0,1.6-0.7,2.5-2.1,2.5c-0.8,0-1.8-0.3-2.7-0.8c-1-0.6-1.8-0.9-2.4-0.8c-0.9,0.1-2.1,1.2-3.6,3.3
		c-1.5,2.1-2.2,3.8-2.2,5.1l0.1,15c0,2.6,0.6,4.4,1.9,5.4c0.9,0.7,2.4,1.1,4.6,1.2v1.2h-15.9v-1.2c2.1-0.4,3.5-0.9,4.2-1.5
		c0.9-0.9,1.4-2.4,1.4-4.6v-18c0-3.6-1.2-5.4-3.4-5.4c-0.8,0-1.5,0.1-2,0.2v-1.2c2.1-0.7,5.2-2.1,9.3-4v9l0.8-1.2c2.1-3,3.7-5,4.6-6
		c1.3-1.3,2.7-2,4.1-2C811.5,328.4,812.6,329.7,812.6,332.3z"/>
	<path d="M842.5,361.2c-1.8,2.5-3.8,3.7-5.8,3.7c-2.1,0-3.2-2.3-3.4-6.8c-5,4.5-8.8,6.8-11.3,6.8c-1.9,0-3.5-0.7-4.7-2
		c-1.4-1.5-2.1-3.4-2.1-5.8c0-3.6,1.6-6.6,4.7-9.1c2.2-1.7,6.6-4,13.1-6.9l0.2-4.4c0.2-4.5-1.9-6.8-6.5-6.8c-1.4,0-2.6,0.4-3.9,1.1
		c-1.4,0.8-2,1.7-2,2.7c0-0.2,0.1,0.7,0.3,2.7c0.1,0.9-0.1,1.7-0.5,2.3c-0.4,0.6-1,0.9-1.8,0.9c-1.6,0-2.4-1.1-2.4-3.2
		c0-1.9,0.8-3.6,2.5-5.2c2.1-2.1,4.9-3.1,8.4-3.1c4.3,0,7.1,1.5,8.4,4.4c0.6,1.5,0.9,4.1,0.9,7.9v14.7c0,3.7,1,5.6,3,5.6
		c0.7,0,1.7-0.4,2.8-1.3V361.2z M833.2,353.6v-10.5c-9,3.5-13.5,7.2-13.5,11.2v0.2c0,3.9,1.8,6.1,5.3,6.5c1.5,0.1,3.3-0.5,5.4-2
		C832.3,357.7,833.2,355.9,833.2,353.6z"/>
</g>
<g>
	<path class="st0" d="M416.7,389.8v12.3h9c0.6,0,1.1,0.1,1.3,0.4c0.3,0.2,0.4,0.6,0.4,1c0,0.4-0.1,0.7-0.4,0.9
		c-0.3,0.2-0.7,0.4-1.3,0.4h-15.1c-0.6,0-1.1-0.1-1.3-0.4c-0.3-0.2-0.4-0.6-0.4-0.9c0-0.4,0.1-0.7,0.4-1c0.3-0.2,0.7-0.4,1.3-0.4
		h3.5v-31.2h-3.5c-0.6,0-1.1-0.1-1.3-0.4c-0.3-0.2-0.4-0.6-0.4-0.9c0-0.4,0.1-0.7,0.4-0.9c0.3-0.2,0.7-0.4,1.3-0.4h15.2
		c3.6,0,6.5,1.1,8.8,3.2c2.3,2.1,3.4,4.6,3.4,7.4c0,1.7-0.4,3.2-1.1,4.5c-0.7,1.3-1.6,2.4-2.7,3.2c-1.6,1.2-3.2,2-4.8,2.6
		c-1.2,0.4-2.7,0.6-4.5,0.6H416.7z M416.7,387.2h8.3c1.9,0,3.7-0.4,5.4-1.3c1.7-0.9,2.9-1.9,3.7-3.2s1.2-2.5,1.2-3.8
		c0-2.1-0.9-3.9-2.6-5.5c-1.8-1.6-4-2.5-6.7-2.5h-9.3V387.2z"/>
	<path class="st0" d="M452.1,365.7v16.1c1.7-1.8,3.3-3.1,4.8-3.8c1.5-0.7,3.2-1.1,5.1-1.1c2,0,3.8,0.4,5.2,1.1
		c1.4,0.7,2.6,1.8,3.6,3.3c1,1.5,1.4,3,1.4,4.7v16.2h2.9c0.6,0,1.1,0.1,1.4,0.4c0.3,0.2,0.4,0.6,0.4,1c0,0.4-0.1,0.7-0.4,0.9
		c-0.3,0.2-0.7,0.4-1.4,0.4h-8.5c-0.6,0-1.1-0.1-1.4-0.4c-0.3-0.2-0.4-0.6-0.4-0.9c0-0.4,0.1-0.7,0.4-1c0.3-0.2,0.7-0.4,1.4-0.4h2.9
		v-16c0-1.9-0.7-3.5-2-4.7c-1.4-1.3-3.3-1.9-5.7-1.9c-1.9,0-3.5,0.5-4.9,1.4c-1,0.7-2.6,2.2-4.8,4.7v16.6h3c0.6,0,1.1,0.1,1.3,0.4
		c0.3,0.2,0.4,0.6,0.4,1c0,0.4-0.1,0.7-0.4,0.9c-0.3,0.2-0.7,0.4-1.3,0.4h-8.5c-0.6,0-1.1-0.1-1.3-0.4c-0.3-0.2-0.4-0.6-0.4-0.9
		c0-0.4,0.1-0.7,0.4-1c0.3-0.2,0.7-0.4,1.3-0.4h3v-33.8h-3.5c-0.6,0-1.1-0.1-1.3-0.4c-0.3-0.2-0.4-0.6-0.4-1c0-0.4,0.1-0.7,0.4-0.9
		c0.3-0.2,0.7-0.4,1.3-0.4H452.1z"/>
	<path class="st0" d="M513.6,391.3c0,4-1.4,7.4-4.3,10.2c-2.9,2.8-6.3,4.2-10.3,4.2c-4.1,0-7.5-1.4-10.4-4.3s-4.3-6.2-4.3-10.2
		c0-4,1.4-7.4,4.3-10.2c2.8-2.8,6.3-4.2,10.4-4.2c4,0,7.5,1.4,10.3,4.2S513.6,387.3,513.6,391.3z M510.9,391.3
		c0-3.3-1.2-6.1-3.5-8.4c-2.3-2.3-5.2-3.5-8.5-3.5c-3.3,0-6.1,1.2-8.5,3.5c-2.3,2.3-3.5,5.1-3.5,8.4c0,3.2,1.2,6,3.5,8.3
		c2.3,2.3,5.2,3.5,8.5,3.5c3.3,0,6.1-1.2,8.5-3.5C509.7,397.4,510.9,394.6,510.9,391.3z"/>
	<path class="st0" d="M531.8,377.8H546c0.6,0,1.1,0.1,1.3,0.4c0.3,0.2,0.4,0.6,0.4,1c0,0.4-0.1,0.7-0.4,0.9
		c-0.3,0.2-0.7,0.4-1.3,0.4h-14.2v17.4c0,1.5,0.6,2.8,1.8,3.8c1.2,1,3,1.5,5.3,1.5c1.8,0,3.7-0.3,5.7-0.8c2.1-0.5,3.7-1.1,4.8-1.8
		c0.4-0.3,0.8-0.4,1-0.4c0.3,0,0.6,0.1,0.9,0.4c0.2,0.3,0.4,0.6,0.4,0.9c0,0.3-0.1,0.6-0.4,0.9c-0.7,0.7-2.3,1.4-4.8,2.2
		c-2.6,0.8-5,1.2-7.4,1.2c-3.1,0-5.5-0.7-7.3-2.1s-2.7-3.4-2.7-5.8v-17.4h-4.8c-0.6,0-1.1-0.1-1.3-0.4c-0.3-0.2-0.4-0.6-0.4-1
		c0-0.4,0.1-0.7,0.4-0.9c0.3-0.2,0.7-0.4,1.3-0.4h4.8v-7.7c0-0.6,0.1-1.1,0.4-1.3c0.2-0.3,0.6-0.4,0.9-0.4c0.4,0,0.7,0.1,1,0.4
		c0.2,0.3,0.4,0.7,0.4,1.3V377.8z"/>
	<path class="st0" d="M590.1,391.3c0,4-1.4,7.4-4.3,10.2c-2.9,2.8-6.3,4.2-10.3,4.2c-4.1,0-7.5-1.4-10.4-4.3s-4.3-6.2-4.3-10.2
		c0-4,1.4-7.4,4.3-10.2c2.8-2.8,6.3-4.2,10.4-4.2c4,0,7.5,1.4,10.3,4.2S590.1,387.3,590.1,391.3z M587.4,391.3
		c0-3.3-1.2-6.1-3.5-8.4c-2.3-2.3-5.2-3.5-8.5-3.5c-3.3,0-6.1,1.2-8.5,3.5c-2.3,2.3-3.5,5.1-3.5,8.4c0,3.2,1.2,6,3.5,8.3
		c2.3,2.3,5.2,3.5,8.5,3.5c3.3,0,6.1-1.2,8.5-3.5C586.3,397.4,587.4,394.6,587.4,391.3z"/>
	<path class="st0" d="M622.5,382.6v-4.8h6.1c0.6,0,1.1,0.1,1.3,0.4c0.3,0.2,0.4,0.6,0.4,1c0,0.4-0.1,0.7-0.4,0.9
		c-0.3,0.2-0.7,0.4-1.3,0.4h-3.5v26.1c0,1.7-0.4,3.3-1.1,4.7c-0.5,0.9-1.3,1.9-2.5,2.8c-1.2,1-2.2,1.7-3.2,2.1
		c-1,0.4-2.2,0.6-3.8,0.6h-7.4c-0.6,0-1.1-0.1-1.3-0.4c-0.3-0.2-0.4-0.6-0.4-1s0.1-0.7,0.4-1c0.3-0.2,0.7-0.4,1.3-0.4l7.5,0
		c1.5,0,2.9-0.4,4.2-1.2c1.2-0.8,2.3-1.9,3.1-3.5c0.5-0.9,0.7-2,0.7-3.3v-7.8c-2.8,3.8-6.4,5.8-10.8,5.8c-3.6,0-6.7-1.3-9.3-4
		c-2.6-2.7-3.9-5.9-3.9-9.6c0-3.8,1.3-7,3.9-9.6c2.6-2.7,5.7-4,9.3-4C616.1,376.8,619.7,378.7,622.5,382.6z M622.5,390.4
		c0-3.1-1.1-5.7-3.2-7.8c-2.1-2.1-4.6-3.2-7.6-3.2c-2.9,0-5.4,1.1-7.5,3.2c-2.1,2.1-3.1,4.7-3.1,7.8c0,3.1,1,5.7,3.1,7.8
		c2.1,2.1,4.6,3.2,7.5,3.2c2.9,0,5.4-1.1,7.6-3.2C621.5,396.1,622.5,393.5,622.5,390.4z"/>
	<path class="st0" d="M648.9,377.8v6.6c3.4-3.1,6-5,7.6-5.9c1.7-0.9,3.3-1.3,4.7-1.3c1.6,0,3,0.5,4.3,1.6c1.3,1,2,1.8,2,2.4
		c0,0.4-0.1,0.7-0.4,1c-0.3,0.3-0.6,0.4-1,0.4c-0.2,0-0.4,0-0.5-0.1c-0.1-0.1-0.4-0.3-0.8-0.7c-0.7-0.7-1.4-1.2-1.9-1.5
		c-0.5-0.3-1.1-0.4-1.6-0.4c-1.1,0-2.5,0.5-4.1,1.4c-1.6,0.9-4.4,3.1-8.4,6.7v14.3h11.6c0.6,0,1.1,0.1,1.4,0.4
		c0.3,0.2,0.4,0.6,0.4,1c0,0.4-0.1,0.7-0.4,0.9c-0.3,0.2-0.7,0.4-1.4,0.4h-20.5c-0.6,0-1.1-0.1-1.3-0.4c-0.3-0.2-0.4-0.5-0.4-0.9
		c0-0.4,0.1-0.6,0.4-0.9c0.3-0.2,0.7-0.4,1.4-0.4h6.3v-21.8h-4.8c-0.6,0-1.1-0.1-1.3-0.4c-0.3-0.2-0.4-0.6-0.4-1
		c0-0.4,0.1-0.7,0.4-0.9c0.3-0.2,0.7-0.4,1.4-0.4H648.9z"/>
	<path class="st0" d="M697.8,404.7V401c-3.8,3.2-7.9,4.8-12.2,4.8c-3.1,0-5.6-0.8-7.3-2.4s-2.6-3.5-2.6-5.8c0-2.5,1.2-4.7,3.5-6.6
		c2.3-1.9,5.7-2.8,10.2-2.8c1.2,0,2.5,0.1,3.9,0.2c1.4,0.2,2.9,0.4,4.6,0.7v-4.2c0-1.4-0.7-2.7-2-3.7c-1.3-1.1-3.3-1.6-6-1.6
		c-2,0-4.9,0.6-8.6,1.8c-0.7,0.2-1.1,0.3-1.3,0.3c-0.3,0-0.6-0.1-0.9-0.4c-0.2-0.2-0.4-0.6-0.4-0.9c0-0.4,0.1-0.6,0.3-0.8
		c0.3-0.3,1.5-0.7,3.5-1.3c3.2-0.9,5.7-1.3,7.3-1.3c3.3,0,5.9,0.8,7.7,2.4c1.8,1.6,2.8,3.5,2.8,5.5v17.3h3.5c0.6,0,1.1,0.1,1.4,0.4
		c0.3,0.2,0.4,0.6,0.4,1c0,0.4-0.1,0.7-0.4,0.9c-0.3,0.2-0.7,0.4-1.4,0.4H697.8z M697.8,391.7c-1.2-0.4-2.5-0.6-3.9-0.8
		s-2.8-0.2-4.3-0.2c-3.8,0-6.8,0.8-8.9,2.5c-1.6,1.2-2.4,2.7-2.4,4.4c0,1.6,0.6,2.9,1.9,4c1.2,1.1,3,1.6,5.4,1.6
		c2.3,0,4.4-0.5,6.3-1.4c1.9-0.9,3.9-2.3,6-4.3V391.7z"/>
	<path class="st0" d="M718.7,377.8v4.8c1.6-1.9,3.2-3.3,5-4.3c1.8-1,3.9-1.4,6.3-1.4c2.6,0,5,0.6,7.1,1.8c2.2,1.2,3.9,2.9,5.1,5
		c1.2,2.1,1.8,4.4,1.8,6.8c0,3.8-1.3,7-4,9.6c-2.7,2.7-6,4-9.9,4c-4.7,0-8.5-1.9-11.4-5.7v15.8h6.4c0.6,0,1.1,0.1,1.3,0.4
		c0.3,0.2,0.4,0.6,0.4,0.9c0,0.4-0.1,0.7-0.4,0.9c-0.3,0.2-0.7,0.4-1.3,0.4h-12.5c-0.6,0-1.1-0.1-1.3-0.4c-0.3-0.2-0.4-0.6-0.4-1
		s0.1-0.7,0.4-0.9c0.3-0.2,0.7-0.4,1.3-0.4h3.5v-33.7h-3.5c-0.6,0-1.1-0.1-1.3-0.4s-0.4-0.6-0.4-1c0-0.4,0.1-0.7,0.4-0.9
		s0.7-0.4,1.3-0.4H718.7z M741.3,390.4c0-3-1.1-5.6-3.3-7.7c-2.2-2.1-4.9-3.2-8-3.2c-3.2,0-5.9,1.1-8.1,3.2
		c-2.2,2.2-3.3,4.7-3.3,7.7c0,3,1.1,5.6,3.3,7.8c2.2,2.2,4.9,3.2,8.1,3.2c3.1,0,5.8-1.1,8-3.2C740.2,396.1,741.3,393.5,741.3,390.4z
		"/>
	<path class="st0" d="M758.2,365.7v16.1c1.7-1.8,3.3-3.1,4.8-3.8c1.5-0.7,3.2-1.1,5.1-1.1c2,0,3.8,0.4,5.2,1.1
		c1.4,0.7,2.6,1.8,3.6,3.3c1,1.5,1.4,3,1.4,4.7v16.2h2.9c0.6,0,1.1,0.1,1.4,0.4c0.3,0.2,0.4,0.6,0.4,1c0,0.4-0.1,0.7-0.4,0.9
		c-0.3,0.2-0.7,0.4-1.4,0.4h-8.5c-0.6,0-1.1-0.1-1.4-0.4s-0.4-0.6-0.4-0.9c0-0.4,0.1-0.7,0.4-1c0.3-0.2,0.7-0.4,1.4-0.4h2.9v-16
		c0-1.9-0.7-3.5-2-4.7c-1.4-1.3-3.3-1.9-5.7-1.9c-1.9,0-3.5,0.5-4.9,1.4c-1,0.7-2.6,2.2-4.8,4.7v16.6h3c0.6,0,1.1,0.1,1.3,0.4
		c0.3,0.2,0.4,0.6,0.4,1c0,0.4-0.1,0.7-0.4,0.9s-0.7,0.4-1.3,0.4h-8.5c-0.6,0-1.1-0.1-1.3-0.4c-0.3-0.2-0.4-0.6-0.4-0.9
		c0-0.4,0.1-0.7,0.4-1c0.3-0.2,0.7-0.4,1.3-0.4h3v-33.8H752c-0.6,0-1.1-0.1-1.3-0.4c-0.3-0.2-0.4-0.6-0.4-1c0-0.4,0.1-0.7,0.4-0.9
		c0.3-0.2,0.7-0.4,1.3-0.4H758.2z"/>
	<path class="st0" d="M805.2,404.7l-12.1-24.3h-0.8c-0.6,0-1.1-0.1-1.3-0.4c-0.3-0.2-0.4-0.6-0.4-0.9c0-0.3,0.1-0.5,0.2-0.7
		s0.3-0.4,0.5-0.5c0.2-0.1,0.6-0.1,1-0.1h7.2c0.6,0,1.1,0.1,1.3,0.4s0.4,0.6,0.4,1c0,0.4-0.1,0.7-0.4,0.9s-0.7,0.4-1.3,0.4h-3.5
		l10.7,21.5l10.5-21.5h-3.5c-0.6,0-1.1-0.1-1.3-0.4c-0.3-0.2-0.4-0.6-0.4-1c0-0.4,0.1-0.7,0.4-0.9c0.3-0.2,0.7-0.4,1.3-0.4h7.1
		c0.6,0,1.1,0.1,1.4,0.4s0.4,0.6,0.4,1c0,0.3-0.1,0.5-0.2,0.7c-0.2,0.2-0.4,0.4-0.6,0.5c-0.2,0.1-0.8,0.1-1.7,0.1l-16.6,33.7h4.1
		c0.6,0,1.1,0.1,1.3,0.4c0.3,0.2,0.4,0.6,0.4,0.9c0,0.4-0.1,0.7-0.4,0.9c-0.3,0.2-0.7,0.4-1.3,0.4h-15.1c-0.6,0-1.1-0.1-1.3-0.4
		c-0.3-0.2-0.4-0.6-0.4-1s0.1-0.7,0.4-0.9c0.3-0.2,0.7-0.4,1.3-0.4h8.2L805.2,404.7z"/>
</g>
<g>
</g>
<g>
</g>
<g>
</g>
<g>
</g>
<g>
</g>
<g>
</g>
<g>
</g>
<g>
</g>
<g>
</g>
<g>
</g>
<g>
</g>
<g>
</g>
<g>
</g>
<g>
</g>
<g>
</g>
</svg>
